<?xml version="1.0" encoding="UTF-8" standalone="no"?>
<!-- Created with Inkscape (http://www.inkscape.org/) -->

<svg
   xmlns:dc="http://purl.org/dc/elements/1.1/"
   xmlns:cc="http://creativecommons.org/ns#"
   xmlns:rdf="http://www.w3.org/1999/02/22-rdf-syntax-ns#"
   xmlns:svg="http://www.w3.org/2000/svg"
   xmlns="http://www.w3.org/2000/svg"
   xmlns:sodipodi="http://sodipodi.sourceforge.net/DTD/sodipodi-0.dtd"
   xmlns:inkscape="http://www.inkscape.org/namespaces/inkscape"
   version="1.1"
   id="svg64"
   width="180"
   height="180"
   viewBox="0 0 180 180"
   sodipodi:docname="arLogo.svg"
   inkscape:version="0.92.5 (2060ec1f9f, 2020-04-08)">
  <metadata
     id="metadata70">
    <rdf:RDF>
      <cc:Work
         rdf:about="">
        <dc:format>image/svg+xml</dc:format>
        <dc:type
           rdf:resource="http://purl.org/dc/dcmitype/StillImage" />
        <dc:title></dc:title>
      </cc:Work>
    </rdf:RDF>
  </metadata>
  <defs
     id="defs68" />
  <sodipodi:namedview
     pagecolor="#ffffff"
     bordercolor="#666666"
     borderopacity="1"
     objecttolerance="10"
     gridtolerance="10"
     guidetolerance="10"
     inkscape:pageopacity="0"
     inkscape:pageshadow="2"
     inkscape:window-width="1436"
     inkscape:window-height="861"
     id="namedview66"
     showgrid="false"
     inkscape:zoom="3.6166667"
     inkscape:cx="90"
     inkscape:cy="676.40362"
     inkscape:window-x="0"
     inkscape:window-y="18"
     inkscape:window-maximized="0"
     inkscape:current-layer="svg64" />
  <path
     style="fill:#000080;stroke-width:0.27742544"
     d="m 21.263533,-441.24438 c -0.08063,-0.0811 -0.854685,-0.26361 -1.720118,-0.4054 -1.744891,-0.2859 -2.79261,-1.16272 -2.360531,-1.97549 0.130131,-0.24479 0.416391,-0.93468 0.636135,-1.53309 0.219743,-0.5984 0.669868,-1.77694 1.000277,-2.61898 0.33041,-0.84203 0.782164,-2.12057 1.003899,-2.84119 0.221735,-0.72063 0.524346,-1.38564 0.672468,-1.47779 0.148122,-0.0922 0.269313,-0.40735 0.269313,-0.70041 0,-0.29306 0.236941,-1.06855 0.526536,-1.7233 0.512632,-1.15903 0.682077,-1.60255 1.943646,-5.08745 0.332533,-0.91857 0.784915,-2.04592 1.005292,-2.5052 0.220377,-0.45929 0.515544,-1.21086 0.655927,-1.67014 0.140382,-0.45929 0.581475,-1.7119 0.980205,-2.78356 0.398731,-1.07168 0.847219,-2.35107 0.996641,-2.8431 0.149422,-0.49203 0.391493,-0.96914 0.537936,-1.06026 0.146443,-0.0911 0.26626,-0.42639 0.26626,-0.74505 0,-0.31867 0.239211,-1.09415 0.531581,-1.7233 0.292369,-0.62916 0.804364,-1.89548 1.137765,-2.81405 0.333401,-0.91858 0.778521,-2.08148 0.989156,-2.58424 0.210635,-0.50276 0.382972,-1.1325 0.382972,-1.39943 0,-0.26694 0.181012,-0.7455 0.402248,-1.06348 0.462194,-0.66432 1.1733,-2.53352 1.56173,-4.10514 0.146803,-0.59398 0.449296,-1.3421 0.672206,-1.66249 0.22291,-0.32039 0.405291,-0.83993 0.405291,-1.15454 0,-0.31461 0.169898,-0.8191 0.377551,-1.12108 0.207653,-0.30198 0.70931,-1.55115 1.114793,-2.77591 0.405483,-1.22477 0.919917,-2.55933 1.143186,-2.96569 0.22327,-0.40636 0.405945,-0.88847 0.405945,-1.07136 0,-0.18288 0.168057,-0.72722 0.373462,-1.20966 0.547482,-1.28584 1.488691,-3.83382 1.712118,-4.63493 0.106745,-0.38275 0.308505,-0.84033 0.448355,-1.01686 0.13985,-0.17654 0.365073,-0.67758 0.500494,-1.11343 0.135422,-0.43586 0.572455,-1.66928 0.971186,-2.74095 0.398731,-1.07167 0.855548,-2.38691 1.01515,-2.92274 0.159601,-0.53584 0.37621,-1.09951 0.481352,-1.25261 0.105143,-0.15309 0.460785,-1.00055 0.790317,-1.88324 0.329531,-0.88269 0.852689,-2.26298 1.162574,-3.0673 0.309885,-0.80432 0.567647,-1.58524 0.572806,-1.73538 0.0052,-0.15013 0.249786,-0.77401 0.543614,-1.3864 0.293829,-0.61238 0.538455,-1.26575 0.543614,-1.45192 0.0052,-0.18618 0.187347,-0.74985 0.404859,-1.25261 0.217512,-0.50275 0.666257,-1.66566 0.997208,-2.58424 0.330952,-0.91857 0.757704,-2.04591 0.94834,-2.5052 0.343831,-0.82837 0.991809,-2.55742 2.112404,-5.63672 0.320353,-0.8803 0.738434,-1.97633 0.929071,-2.43561 0.35356,-0.85181 0.828611,-2.12807 2.84927,-7.6548 0.307858,-0.84203 1.00792,-2.66109 1.555692,-4.04236 0.54777,-1.38127 0.996714,-2.69651 0.997651,-2.92274 8.29e-4,-0.22624 0.201108,-0.78712 0.444824,-1.24641 0.243716,-0.45929 0.54561,-1.14822 0.67088,-1.53096 0.125267,-0.38274 0.553446,-1.57272 0.951506,-2.64439 0.39806,-1.07167 0.84007,-2.32427 0.98224,-2.78356 0.14217,-0.45929 0.37676,-1.08559 0.52129,-1.39178 0.75393,-1.59718 1.40452,-3.32389 1.40452,-3.72773 0,-0.25072 0.24884,-0.92328 0.55299,-1.49456 0.30415,-0.57129 0.553,-1.17681 0.553,-1.3456 0,-0.16878 0.18107,-0.70159 0.40239,-1.18402 0.45622,-0.99448 1.1517,-2.91368 1.57874,-4.35659 0.15859,-0.53584 0.40506,-1.11868 0.54771,-1.29521 0.14265,-0.17654 0.37016,-0.67758 0.50559,-1.11343 0.13542,-0.43585 0.57245,-1.66928 0.97118,-2.74095 0.39873,-1.07167 0.84672,-2.34924 0.99553,-2.83905 0.14881,-0.4898 0.45233,-1.24136 0.67448,-1.67013 0.22216,-0.42878 0.40469,-0.94815 0.40562,-1.15418 8.3e-4,-0.20602 0.17312,-0.70706 0.38262,-1.11342 0.50002,-0.96984 1.5541,-3.73633 1.55627,-4.08449 8.3e-4,-0.15014 0.18347,-0.6238 0.40562,-1.05257 0.22216,-0.42877 0.52259,-1.18033 0.66763,-1.67014 0.14503,-0.4898 0.53371,-1.57948 0.86371,-2.42151 0.33,-0.84202 0.77755,-2.09058 0.99455,-2.77456 0.217,-0.68399 0.51676,-1.36666 0.66615,-1.51704 0.14938,-0.15039 0.27237,-0.53022 0.27331,-0.84407 8.3e-4,-0.31385 0.18814,-0.9305 0.41599,-1.37035 0.22786,-0.43984 0.77748,-1.81771 1.22137,-3.06192 0.4439,-1.24421 1.03997,-2.8885 1.32461,-3.65398 l 0.51752,-1.39178 2.67005,-0.0795 2.67006,-0.0795 0.2943,1.05376 c 0.16186,0.57956 0.47891,1.2969 0.70455,1.59408 0.22564,0.29718 0.41026,0.76265 0.41026,1.03439 0,0.27174 0.17234,0.90541 0.38297,1.40817 0.21064,0.50276 0.66415,1.66566 1.00781,2.58424 0.34366,0.91857 0.85565,2.19562 1.13776,2.83788 0.28212,0.64226 0.51294,1.26577 0.51294,1.38559 0,0.11981 0.44817,1.34797 0.99594,2.72924 0.54778,1.38127 1.25069,3.20033 1.56203,4.04236 0.31134,0.84203 0.73413,1.92567 0.93953,2.4081 0.20541,0.48242 0.373459,1.04795 0.373459,1.25672 0,0.20878 0.24885,0.84701 0.553,1.4183 0.30415,0.57128 0.55299,1.20046 0.55299,1.39816 0,0.1977 0.43549,1.41471 0.96775,2.70448 0.53225,1.28976 0.96774,2.50678 0.96774,2.70448 0,0.1977 0.24885,0.82687 0.55299,1.39816 0.30415,0.57129 0.553,1.19995 0.553,1.39702 0,0.38111 1.64979,4.72661 2.52065,6.63933 0.28645,0.62915 0.52082,1.34515 0.52082,1.5911 0,0.43267 0.33212,1.29887 1.417771,3.69767 0.28475,0.62915 0.51772,1.33925 0.51772,1.57799 0,0.23874 0.17489,0.78869 0.38864,1.22211 0.21375,0.43342 0.64924,1.50829 0.96774,2.38859 1.08134,2.98866 1.75838,4.8001 2.00273,5.35836 0.13402,0.30619 0.36,0.93249 0.50218,1.39178 0.14217,0.45929 0.56012,1.64926 0.92878,2.64438 0.36866,0.99513 1.06159,2.87403 1.53986,4.17535 0.47826,1.30131 0.99097,2.61655 1.13935,2.92274 0.14838,0.30619 0.57131,1.49616 0.93985,2.64438 0.36854,1.14822 0.86612,2.46345 1.10572,2.92274 0.23961,0.45929 0.43642,0.9921 0.43736,1.18402 8.3e-4,0.19193 0.25055,0.81638 0.5547,1.38767 0.30415,0.57128 0.553,1.25551 0.553,1.5205 0,0.46161 0.42893,1.60445 1.29359,3.44664 0.22156,0.47204 0.50867,1.28624 0.63801,1.80931 0.26912,1.08834 1.79304,5.27354 2.37341,6.51817 0.21416,0.45929 0.70962,1.83379 1.10102,3.05445 0.39139,1.22066 0.8153,2.34799 0.94202,2.5052 0.12672,0.1572 0.36015,0.72424 0.51874,1.26008 0.42704,1.44289 1.12252,3.3621 1.57874,4.35658 0.22132,0.48242 0.40239,1.07786 0.40239,1.32319 0,0.24534 0.24885,0.91349 0.553,1.48478 0.30415,0.57129 0.55299,1.24384 0.55299,1.49456 0,0.41994 0.82169,2.59369 1.35993,3.59769 0.12581,0.23467 0.31399,0.81741 0.41819,1.295 0.10419,0.47759 0.43107,1.34547 0.7264,1.92863 0.29533,0.58315 0.53696,1.3219 0.53696,1.64165 0,0.31976 0.11286,0.70036 0.2508,0.8458 0.13794,0.14544 0.38001,0.70285 0.53793,1.23869 0.15793,0.53584 0.61392,1.85107 1.01331,2.92274 0.39939,1.07167 0.84576,2.34924 0.99193,2.83904 0.14617,0.48981 0.44752,1.24137 0.66967,1.67014 0.22216,0.42878 0.40468,0.94815 0.40562,1.15418 8.3e-4,0.20602 0.17976,0.70706 0.39739,1.11342 0.21763,0.40637 0.71343,1.74092 1.10177,2.96569 1.05153,3.31631 1.84413,5.53258 2.09049,5.84549 0.12054,0.15309 0.31011,0.71676 0.42127,1.2526 0.11116,0.53583 0.29923,1.0995 0.41793,1.2526 0.1187,0.1531 0.34641,0.71677 0.50601,1.2526 0.1596,0.53583 0.61696,1.85107 1.01635,2.92274 0.3994,1.07168 0.84576,2.34925 0.99193,2.83905 0.14617,0.4898 0.44752,1.24137 0.66968,1.67014 0.22215,0.42876 0.40468,0.97091 0.40562,1.20476 8.2e-4,0.23387 0.17805,0.67868 0.3936,0.98847 0.21554,0.3098 0.48061,1.05792 0.58905,1.66248 0.10843,0.60457 0.29241,1.22448 0.40884,1.37757 0.11644,0.15309 0.34228,0.71677 0.50189,1.25261 0.1596,0.53583 0.61696,1.85107 1.01635,2.92274 0.3994,1.07167 0.84576,2.34924 0.99193,2.83904 0.14617,0.48981 0.44752,1.24137 0.66967,1.67014 0.22216,0.42877 0.40469,0.99493 0.40562,1.25814 8.3e-4,0.2632 0.26406,0.98527 0.58472,1.6046 0.41063,0.7931 0.53315,1.3936 0.41439,2.03089 -0.1482,0.79532 -0.40099,1.01384 -2.08835,1.80527 -2.2294,1.04566 -2.79587,1.10614 -3.26573,0.34873 -0.18823,-0.30344 -1.86678,-2.4504 -3.73011,-4.77104 -1.86333,-2.32064 -4.00999,-5.04864 -4.77036,-6.06222 -0.76036,-1.01359 -1.78686,-2.27656 -2.2811,-2.80662 -0.49424,-0.53006 -0.89862,-1.05633 -0.89862,-1.1695 0,-0.11316 -0.91403,-1.31133 -2.03118,-2.66259 -1.11715,-1.35128 -2.08143,-2.59392 -2.14286,-2.76144 -0.0614,-0.16753 -0.57444,-0.85167 -1.14004,-1.5203 -0.98703,-1.16685 -3.62239,-4.66685 -5.30119,-7.04046 -0.43978,-0.6218 -0.95306,-1.25661 -1.14061,-1.41071 -0.36215,-0.29752 -4.2861,-5.78999 -5.24873,-7.34679 -0.15207,-0.24594 -0.61866,-0.85902 -1.03686,-1.36242 -0.41821,-0.50339 -0.76037,-1.03616 -0.76037,-1.18393 0,-0.14776 -0.21774,-0.48882 -0.48387,-0.75789 -1.25059,-1.26441 -3.99129,-6.05263 -4.49215,-7.84816 -0.34385,-1.2326 1.26421,-3.57781 2.77471,-4.04668 0.37431,-0.11619 1.3649,-0.57117 2.20131,-1.01108 0.8364,-0.43991 1.80687,-0.8001 2.15659,-0.80044 0.34971,-2.7e-4 0.98988,-0.1849 1.42258,-0.41016 0.43271,-0.22527 1.2975,-0.4918 1.92176,-0.59229 1.11788,-0.17996 1.13501,-0.20019 1.13501,-1.33981 0,-1.12556 -0.79289,-3.91393 -1.43109,-5.03274 -0.17402,-0.30508 -0.41322,-0.93138 -0.53154,-1.39178 -0.11833,-0.46041 -0.54373,-1.71393 -0.94534,-2.78559 -0.40161,-1.07168 -0.82488,-2.3252 -0.94059,-2.78559 -0.11572,-0.4604 -0.35444,-1.0867 -0.53048,-1.39177 -0.17605,-0.30508 -0.62814,-1.49414 -1.00466,-2.64236 -1.11292,-3.39399 -1.7387,-5.09747 -2.19852,-5.98466 -0.23804,-0.45929 -0.43357,-1.09185 -0.43451,-1.4057 -8.3e-4,-0.31385 -0.11456,-0.68963 -0.2525,-0.83507 -0.13795,-0.14544 -0.38002,-0.70285 -0.53794,-1.23868 -0.15792,-0.53584 -0.61391,-1.85107 -1.0133,-2.92274 -0.3994,-1.07168 -0.84576,-2.34925 -0.99193,-2.83905 -0.14617,-0.4898 -0.44752,-1.24137 -0.66968,-1.67014 -0.22215,-0.42877 -0.40468,-0.97092 -0.40562,-1.20477 -8.3e-4,-0.23386 -0.18408,-0.68732 -0.40699,-1.00771 -0.22291,-0.32039 -0.52317,-1.06851 -0.66724,-1.66249 -0.14408,-0.59398 -0.53289,-1.76889 -0.864041,-2.61092 -0.33116,-0.84202 -0.77242,-2.032 -0.98059,-2.64438 -0.20818,-0.61239 -0.70441,-1.99025 -1.10275,-3.06192 -0.39834,-1.07167 -0.82387,-2.32428 -0.94562,-2.78356 -0.12176,-0.45929 -0.42222,-1.21085 -0.66769,-1.67014 -0.24548,-0.45929 -0.45104,-1.08559 -0.45682,-1.39178 -0.006,-0.30619 -0.19318,-0.79986 -0.41645,-1.09704 -0.22327,-0.29718 -0.41017,-0.73559 -0.41533,-0.97425 -0.005,-0.23866 -0.24979,-0.93496 -0.54362,-1.54734 -0.29383,-0.61239 -0.53845,-1.36739 -0.54361,-1.67779 -0.005,-0.31041 -0.17504,-0.81145 -0.37751,-1.11343 -0.20246,-0.30198 -0.65504,-1.48851 -1.00573,-2.63673 -0.35068,-1.14822 -0.804689,-2.36134 -1.008919,-2.69581 -0.20422,-0.33448 -0.48961,-1.08604 -0.63421,-1.67014 -0.31468,-1.27112 -1.00344,-3.23643 -1.55758,-4.44434 -0.22131,-0.48243 -0.40239,-0.98105 -0.40239,-1.10805 0,-0.23086 -0.85778,-2.5267 -1.56202,-4.18072 -0.20541,-0.48243 -0.37346,-1.04795 -0.37346,-1.25673 0,-0.20877 -0.24885,-0.847 -0.553,-1.41829 -0.30415,-0.57129 -0.55299,-1.25163 -0.55299,-1.51188 0,-0.72783 -1.39752,-2.59076 -1.94351,-2.59076 -0.2672,0 -0.56133,0.19813 -0.65364,0.4403 -0.26299,0.68994 -0.19199,9.11194 0.10541,12.50326 0.14768,1.68406 0.39264,10.64017 0.54436,19.90248 0.15172,9.2623 0.40327,19.97206 0.55901,23.79946 0.15574,3.8274 0.41226,14.16136 0.57004,22.96438 0.15779,8.80302 0.39744,17.25809 0.53257,18.78905 0.13512,1.53096 0.33564,11.01943 0.44559,21.08549 l 0.1999,18.30192 h -4.71342 -4.71342 l 0.12083,-8.69863 c 0.0664,-4.78425 0.24544,-11.76751 0.39775,-15.51836 0.15231,-3.75086 0.46231,-19.65892 0.68889,-35.35125 0.22658,-15.69232 0.52427,-33.2914 0.66152,-39.10905 0.34931,-14.8062 0.35471,-43.34371 0.008,-44.26078 -0.17753,-0.47008 -0.44687,-0.70139 -0.7486,-0.64289 -0.46998,0.0911 -0.85637,1.02791 -2.44748,5.93379 -0.39723,1.22477 -0.83594,2.44455 -0.97491,2.71062 -0.21834,0.41801 -0.71461,1.84194 -2.20823,6.33596 -0.17808,0.53584 -0.49107,1.35003 -0.69551,1.80932 -0.54322,1.22036 -1.21822,3.18116 -1.52941,4.44274 -0.14956,0.60636 -0.3807,1.2344 -0.51364,1.39565 -0.13293,0.16126 -0.61918,1.41879 -1.08055,2.79453 -0.46137,1.37573 -1.1581,3.37815 -1.54829,4.44983 -0.39018,1.07167 -1.07068,3.0132 -1.51221,4.31452 -0.44153,1.30131 -1.12757,3.24285 -1.52453,4.31452 -0.39696,1.07167 -1.02892,2.88795 -1.40436,4.03617 -0.37545,1.14822 -0.86819,2.42015 -1.09498,2.82651 -0.22679,0.40636 -0.41235,0.9511 -0.41235,1.21053 0,0.25944 -0.18107,0.86641 -0.40239,1.34884 -0.5615,1.22398 -1.24473,3.17989 -1.56661,4.48481 -0.14956,0.60635 -0.40215,1.26042 -0.5613,1.45347 -0.15916,0.19306 -0.391658,0.76166 -0.516671,1.26357 -0.125013,0.5019 -0.550924,1.78937 -0.946465,2.86104 -0.395544,1.07167 -1.089592,3.04603 -1.542332,4.38747 -0.452737,1.34144 -0.938458,2.65668 -1.079375,2.92274 -0.140917,0.26607 -0.458364,1.11007 -0.705437,1.87555 -0.247073,0.76548 -0.752627,2.33123 -1.123452,3.47945 -0.370827,1.14822 -0.862252,2.42014 -1.092058,2.82651 -0.229802,0.40636 -0.417824,0.95109 -0.417824,1.21052 0,0.25944 -0.181075,0.86641 -0.402389,1.34883 -0.561509,1.22399 -1.244738,3.1799 -1.566611,4.48482 -0.149566,0.60635 -0.382037,1.23601 -0.516603,1.39925 -0.435393,0.52813 -1.66187,4.64039 -1.66187,5.57206 0,1.55685 0.324967,1.63876 4.940071,1.24515 4.201543,-0.35833 8.058876,-0.10075 8.740426,0.58366 0.76813,0.77136 0.5639,11.65528 -0.28165,15.01029 -0.63599,2.5235 -1.60915,3.51326 -3.683769,3.74663 -0.857118,0.0964 -2.367152,0.0443 -3.355631,-0.1157 -0.98848,-0.16004 -3.165899,-0.41039 -4.83871,-0.55633 -1.672811,-0.14594 -3.585921,-0.45901 -4.251354,-0.69572 -0.665432,-0.23671 -1.994517,-0.43038 -2.953521,-0.43038 -1.598246,0 -1.790076,0.0656 -2.300455,0.78723 -0.306246,0.43297 -0.735638,1.27848 -0.954205,1.8789 -0.498501,1.36943 -2.857315,7.21114 -3.363129,8.32895 -0.836121,1.84774 -1.522958,3.56424 -1.522958,3.80606 0,0.14071 -0.435484,1.19225 -0.967742,2.33675 -0.532258,1.14449 -0.967742,2.20007 -0.967742,2.3457 0,0.14566 -0.263579,0.86316 -0.585732,1.59445 -2.007597,4.55734 -2.455743,5.68762 -2.455743,6.19367 0,0.2633 -0.248848,0.76759 -0.552995,1.12063 -0.304147,0.35305 -0.552995,0.77652 -0.552995,0.94106 0,0.31589 -1.694456,4.73824 -2.359112,6.15702 -0.215162,0.4593 -0.515847,1.17954 -0.668188,1.60056 -0.236869,0.65461 -0.431488,0.76548 -1.343737,0.76548 -0.586713,0 -1.132723,-0.0664 -1.213356,-0.1476 z"
     id="path78"
     inkscape:connector-curvature="0" />
</svg>
